<svg width="18" height="21" viewBox="0 0 18 21" fill="none" xmlns="http://www.w3.org/2000/svg">
<path fill-rule="evenodd" clip-rule="evenodd" d="M0 3.57692C0 2.72725 0.671573 2.03846 1.5 2.03846H16.5C17.3284 2.03846 18 2.72725 18 3.57692V18.9615C18 19.8112 17.3284 20.5 16.5 20.5H1.5C0.671573 20.5 0 19.8112 0 18.9615V3.57692ZM16.5 3.57692H1.5V18.9615H16.5V3.57692Z" fill="#6D6D6D"/>
<path fill-rule="evenodd" clip-rule="evenodd" d="M13.5 0.5C13.9142 0.5 14.25 0.844396 14.25 1.26923V4.34615C14.25 4.77099 13.9142 5.11538 13.5 5.11538C13.0858 5.11538 12.75 4.77099 12.75 4.34615V1.26923C12.75 0.844396 13.0858 0.5 13.5 0.5Z" fill="#6D6D6D"/>
<path fill-rule="evenodd" clip-rule="evenodd" d="M4.5 0.5C4.91421 0.5 5.25 0.844396 5.25 1.26923V4.34615C5.25 4.77099 4.91421 5.11538 4.5 5.11538C4.08579 5.11538 3.75 4.77099 3.75 4.34615V1.26923C3.75 0.844396 4.08579 0.5 4.5 0.5Z" fill="#6D6D6D"/>
<path fill-rule="evenodd" clip-rule="evenodd" d="M0 7.42308C0 6.99824 0.335786 6.65385 0.75 6.65385H17.25C17.6642 6.65385 18 6.99824 18 7.42308C18 7.84791 17.6642 8.19231 17.25 8.19231H0.75C0.335786 8.19231 0 7.84791 0 7.42308Z" fill="#6D6D6D"/>
</svg>
